<svg xmlns="http://www.w3.org/2000/svg" xmlns:xlink="http://www.w3.org/1999/xlink" width="160" zoomAndPan="magnify" viewBox="0 0 120 66.75" height="89" preserveAspectRatio="xMidYMid meet" version="1.0"><defs><g/><clipPath id="b3c2b41a06"><path d="M 1 9.488281 L 116 9.488281 L 116 64 L 1 64 Z M 1 9.488281 " clip-rule="nonzero"/></clipPath></defs><g clip-path="url(#b3c2b41a06)"><path fill="#000000" d="M 115.527344 19.992188 C 114.089844 14.835938 108.082031 11.105469 98.605469 9.488281 C 98.492188 9.464844 98.375 9.542969 98.359375 9.667969 C 98.339844 9.78125 98.414062 9.898438 98.539062 9.914062 C 107.839844 11.5 113.726562 15.117188 115.109375 20.105469 C 118.449219 32.097656 95.824219 48.917969 64.679688 57.597656 C 33.53125 66.273438 5.488281 63.582031 2.148438 51.585938 C 0.828125 46.84375 3.539062 41.199219 9.828125 35.402344 C 10.933594 36.503906 11.605469 38.046875 12.347656 40.53125 C 13.824219 35.582031 15.023438 34.382812 19.972656 32.898438 C 15.03125 31.417969 13.832031 30.21875 12.347656 25.265625 C 10.871094 30.210938 9.671875 31.414062 4.722656 32.898438 C 6.957031 33.566406 8.425781 34.183594 9.503906 35.109375 C 3.109375 41.019531 0.371094 46.800781 1.730469 51.707031 C 3.800781 59.140625 15.058594 63.101562 30.617188 63.09375 C 40.660156 63.09375 52.492188 61.449219 64.796875 58.019531 C 96.167969 49.277344 118.929688 32.21875 115.527344 19.996094 Z M 115.527344 19.992188 " fill-opacity="1" fill-rule="nonzero"/></g><g fill="#000000" fill-opacity="1"><g transform="translate(15.724387, 29.846166)"><g><path d="M 16.953125 -0.09375 C 17.023438 -0.09375 17.054688 -0.0625 17.046875 0 C 17.046875 0.0507812 17.015625 0.078125 16.953125 0.078125 C 16.835938 0.0546875 16.671875 0.0351562 16.453125 0.015625 C 16.242188 0.00390625 16.078125 0 15.953125 0 L 12.671875 0 C 12.460938 0 12.1875 0.00390625 11.84375 0.015625 C 11.5 0.0351562 11.238281 0.0546875 11.0625 0.078125 C 10.957031 0.078125 10.90625 0.0507812 10.90625 0 C 10.90625 -0.0625 10.957031 -0.09375 11.0625 -0.09375 C 11.507812 -0.113281 11.890625 -0.1875 12.203125 -0.3125 C 12.523438 -0.4375 12.742188 -0.644531 12.859375 -0.9375 C 12.972656 -1.238281 12.925781 -1.644531 12.71875 -2.15625 L 11.28125 -5.546875 C 11.09375 -5.753906 10.867188 -5.796875 10.609375 -5.671875 C 9.546875 -5.171875 8.40625 -4.769531 7.1875 -4.46875 C 5.976562 -4.164062 4.753906 -3.984375 3.515625 -3.921875 C 3.359375 -3.921875 3.203125 -3.875 3.046875 -3.78125 C 2.898438 -3.695312 2.800781 -3.582031 2.75 -3.4375 L 2.75 -3.46875 L 2.203125 -2.15625 C 1.992188 -1.644531 1.941406 -1.238281 2.046875 -0.9375 C 2.160156 -0.644531 2.390625 -0.4375 2.734375 -0.3125 C 3.078125 -0.1875 3.472656 -0.113281 3.921875 -0.09375 C 4.046875 -0.09375 4.097656 -0.0625 4.078125 0 C 4.066406 0.0507812 4.003906 0.078125 3.890625 0.078125 C 3.722656 0.0546875 3.460938 0.0351562 3.109375 0.015625 C 2.753906 0.00390625 2.46875 0 2.25 0 L 1.21875 0 C 1.09375 0 0.925781 0.00390625 0.71875 0.015625 C 0.507812 0.0351562 0.34375 0.0546875 0.21875 0.078125 C 0.15625 0.078125 0.125 0.0507812 0.125 0 C 0.125 -0.0625 0.15625 -0.09375 0.21875 -0.09375 C 0.632812 -0.125 0.957031 -0.28125 1.1875 -0.5625 C 1.425781 -0.851562 1.707031 -1.382812 2.03125 -2.15625 L 7.125 -14.375 C 7.21875 -14.59375 7.25 -14.800781 7.21875 -15 C 7.1875 -15.195312 7.144531 -15.351562 7.09375 -15.46875 L 6.734375 -16.328125 C 6.691406 -16.484375 6.59375 -16.585938 6.4375 -16.640625 C 6.40625 -16.648438 6.398438 -16.664062 6.421875 -16.6875 C 6.441406 -16.71875 6.484375 -16.734375 6.546875 -16.734375 L 8.78125 -16.734375 C 8.945312 -16.734375 9.0625 -16.65625 9.125 -16.5 L 15.15625 -2.15625 C 15.476562 -1.382812 15.757812 -0.851562 16 -0.5625 C 16.238281 -0.28125 16.554688 -0.125 16.953125 -0.09375 Z M 10.515625 -5.828125 C 10.671875 -5.910156 10.773438 -6.019531 10.828125 -6.15625 C 10.890625 -6.289062 10.898438 -6.40625 10.859375 -6.5 L 10.875 -6.5 L 7.4375 -14.671875 L 3.203125 -4.515625 C 3.179688 -4.421875 3.195312 -4.328125 3.25 -4.234375 C 3.300781 -4.140625 3.394531 -4.09375 3.53125 -4.09375 C 4.75 -4.164062 5.96875 -4.34375 7.1875 -4.625 C 8.40625 -4.914062 9.515625 -5.316406 10.515625 -5.828125 Z M 10.515625 -5.828125 "/></g></g></g><g fill="#000000" fill-opacity="1"><g transform="translate(32.883683, 29.846166)"><g><path d="M 8.78125 -0.328125 C 9.601562 -0.328125 10.238281 -0.078125 10.6875 0.421875 C 11.144531 0.929688 11.375 1.515625 11.375 2.171875 C 11.375 2.765625 11.210938 3.28125 10.890625 3.71875 C 10.566406 4.15625 10.148438 4.492188 9.640625 4.734375 C 9.140625 4.972656 8.628906 5.09375 8.109375 5.09375 C 7.191406 5.09375 6.457031 4.890625 5.90625 4.484375 C 5.363281 4.085938 4.957031 3.691406 4.6875 3.296875 C 4.394531 3.421875 4.085938 3.523438 3.765625 3.609375 C 3.441406 3.691406 3.09375 3.734375 2.71875 3.734375 C 1.9375 3.734375 1.328125 3.515625 0.890625 3.078125 C 0.453125 2.640625 0.234375 2.097656 0.234375 1.453125 C 0.234375 0.671875 0.488281 0.0234375 1 -0.484375 C 1.507812 -1.003906 2.078125 -1.414062 2.703125 -1.71875 C 1.972656 -2.082031 1.375 -2.613281 0.90625 -3.3125 C 0.445312 -4.019531 0.21875 -4.859375 0.21875 -5.828125 C 0.21875 -6.816406 0.457031 -7.707031 0.9375 -8.5 C 1.425781 -9.300781 2.085938 -9.9375 2.921875 -10.40625 C 3.765625 -10.875 4.703125 -11.109375 5.734375 -11.109375 C 6.097656 -11.109375 6.453125 -11.078125 6.796875 -11.015625 C 7.140625 -10.953125 7.460938 -10.859375 7.765625 -10.734375 C 7.785156 -11.484375 7.941406 -12.082031 8.234375 -12.53125 C 8.523438 -12.976562 8.890625 -13.296875 9.328125 -13.484375 C 9.773438 -13.671875 10.210938 -13.765625 10.640625 -13.765625 C 10.859375 -13.765625 11.039062 -13.707031 11.1875 -13.59375 C 11.332031 -13.488281 11.375 -13.335938 11.3125 -13.140625 L 10.90625 -11.828125 C 10.820312 -11.609375 10.703125 -11.554688 10.546875 -11.671875 C 10.378906 -11.773438 10.191406 -11.863281 9.984375 -11.9375 C 9.785156 -12.007812 9.550781 -12.046875 9.28125 -12.046875 C 8.875 -12.046875 8.554688 -11.941406 8.328125 -11.734375 C 8.097656 -11.523438 8.007812 -11.148438 8.0625 -10.609375 C 8.851562 -10.234375 9.488281 -9.671875 9.96875 -8.921875 C 10.457031 -8.179688 10.703125 -7.3125 10.703125 -6.3125 C 10.703125 -5.375 10.457031 -4.515625 9.96875 -3.734375 C 9.476562 -2.953125 8.8125 -2.328125 7.96875 -1.859375 C 7.132812 -1.398438 6.191406 -1.171875 5.140625 -1.171875 C 4.335938 -1.171875 3.582031 -1.332031 2.875 -1.65625 C 2.394531 -1.425781 1.988281 -1.164062 1.65625 -0.875 C 1.332031 -0.59375 1.171875 -0.195312 1.171875 0.3125 C 1.171875 0.695312 1.300781 1.007812 1.5625 1.25 C 1.820312 1.5 2.144531 1.625 2.53125 1.625 C 3.0625 1.625 3.5625 1.523438 4.03125 1.328125 C 4.5 1.128906 4.96875 0.898438 5.4375 0.640625 C 5.90625 0.390625 6.410156 0.164062 6.953125 -0.03125 C 7.492188 -0.226562 8.101562 -0.328125 8.78125 -0.328125 Z M 4.921875 -10.640625 C 3.960938 -10.640625 3.21875 -10.367188 2.6875 -9.828125 C 2.15625 -9.296875 1.890625 -8.484375 1.890625 -7.390625 C 1.890625 -6.703125 1.988281 -6.019531 2.1875 -5.34375 C 2.382812 -4.664062 2.660156 -4.046875 3.015625 -3.484375 C 3.378906 -2.929688 3.804688 -2.484375 4.296875 -2.140625 C 4.796875 -1.796875 5.332031 -1.625 5.90625 -1.625 C 6.894531 -1.625 7.664062 -1.890625 8.21875 -2.421875 C 8.78125 -2.960938 9.0625 -3.78125 9.0625 -4.875 C 9.0625 -5.53125 8.953125 -6.195312 8.734375 -6.875 C 8.523438 -7.550781 8.234375 -8.171875 7.859375 -8.734375 C 7.484375 -9.304688 7.039062 -9.765625 6.53125 -10.109375 C 6.03125 -10.460938 5.492188 -10.640625 4.921875 -10.640625 Z M 8.25 4.703125 C 8.9375 4.703125 9.472656 4.585938 9.859375 4.359375 C 10.253906 4.128906 10.453125 3.726562 10.453125 3.15625 C 10.453125 2.757812 10.320312 2.425781 10.0625 2.15625 C 9.8125 1.894531 9.445312 1.765625 8.96875 1.765625 C 8.394531 1.765625 7.875 1.847656 7.40625 2.015625 C 6.945312 2.179688 6.515625 2.375 6.109375 2.59375 C 5.703125 2.820312 5.285156 3.039062 4.859375 3.25 C 5.171875 3.613281 5.609375 3.945312 6.171875 4.25 C 6.742188 4.550781 7.4375 4.703125 8.25 4.703125 Z M 8.25 4.703125 "/></g></g></g><g fill="#000000" fill-opacity="1"><g transform="translate(44.378975, 29.846166)"><g><path d="M 10.78125 -2.0625 C 10.800781 -2.09375 10.828125 -2.09375 10.859375 -2.0625 C 10.898438 -2.039062 10.90625 -2 10.875 -1.9375 C 10.25 -1.15625 9.519531 -0.582031 8.6875 -0.21875 C 7.863281 0.144531 6.984375 0.328125 6.046875 0.328125 C 5.078125 0.328125 4.179688 0.101562 3.359375 -0.34375 C 2.535156 -0.800781 1.875 -1.445312 1.375 -2.28125 C 0.875 -3.113281 0.625 -4.09375 0.625 -5.21875 C 0.625 -6.363281 0.890625 -7.378906 1.421875 -8.265625 C 1.953125 -9.160156 2.664062 -9.863281 3.5625 -10.375 C 4.46875 -10.882812 5.460938 -11.140625 6.546875 -11.140625 C 7.484375 -11.140625 8.3125 -10.921875 9.03125 -10.484375 C 9.75 -10.054688 10.25 -9.441406 10.53125 -8.640625 C 10.820312 -7.847656 10.796875 -6.90625 10.453125 -5.8125 C 9.609375 -5.789062 8.507812 -5.765625 7.15625 -5.734375 C 5.8125 -5.703125 4.265625 -5.664062 2.515625 -5.625 C 2.722656 -4.644531 3.113281 -3.789062 3.6875 -3.0625 C 4.257812 -2.34375 4.914062 -1.785156 5.65625 -1.390625 C 6.394531 -1.003906 7.113281 -0.8125 7.8125 -0.8125 C 8.070312 -0.8125 8.375 -0.835938 8.71875 -0.890625 C 9.070312 -0.953125 9.429688 -1.066406 9.796875 -1.234375 C 10.160156 -1.410156 10.488281 -1.6875 10.78125 -2.0625 Z M 5.640625 -10.734375 C 4.609375 -10.734375 3.804688 -10.421875 3.234375 -9.796875 C 2.671875 -9.179688 2.390625 -8.226562 2.390625 -6.9375 C 2.390625 -6.726562 2.394531 -6.523438 2.40625 -6.328125 C 2.425781 -6.140625 2.453125 -5.953125 2.484375 -5.765625 C 3.628906 -5.796875 4.71875 -5.832031 5.75 -5.875 C 6.78125 -5.925781 7.691406 -5.957031 8.484375 -5.96875 C 8.679688 -6.382812 8.734375 -6.863281 8.640625 -7.40625 C 8.554688 -7.945312 8.363281 -8.46875 8.0625 -8.96875 C 7.769531 -9.476562 7.410156 -9.898438 6.984375 -10.234375 C 6.566406 -10.566406 6.117188 -10.734375 5.640625 -10.734375 Z M 5.640625 -10.734375 "/></g></g></g><g fill="#000000" fill-opacity="1"><g transform="translate(55.826471, 29.846166)"><g><path d="M 15.328125 -3.703125 C 15.328125 -3.785156 15.359375 -3.828125 15.421875 -3.828125 C 15.484375 -3.835938 15.515625 -3.796875 15.515625 -3.703125 C 15.515625 -2.796875 15.390625 -2.046875 15.140625 -1.453125 C 14.898438 -0.867188 14.585938 -0.425781 14.203125 -0.125 C 13.816406 0.164062 13.425781 0.3125 13.03125 0.3125 C 12.550781 0.3125 12.15625 0.113281 11.84375 -0.28125 C 11.53125 -0.6875 11.285156 -1.269531 11.109375 -2.03125 L 9.609375 -8.25 C 9.453125 -8.882812 9.234375 -9.375 8.953125 -9.71875 C 8.671875 -10.0625 8.15625 -10.234375 7.40625 -10.234375 C 6.625 -10.234375 5.945312 -9.898438 5.375 -9.234375 C 4.800781 -8.578125 4.46875 -7.648438 4.375 -6.453125 L 4.375 -1.84375 C 4.375 -1.207031 4.492188 -0.765625 4.734375 -0.515625 C 4.972656 -0.265625 5.332031 -0.132812 5.8125 -0.125 C 5.882812 -0.125 5.921875 -0.09375 5.921875 -0.03125 C 5.921875 0.0195312 5.882812 0.046875 5.8125 0.046875 C 5.550781 0.0351562 5.195312 0.0234375 4.75 0.015625 C 4.3125 0.00390625 3.835938 0 3.328125 0 C 2.828125 0 2.347656 0.00390625 1.890625 0.015625 C 1.441406 0.0234375 1.082031 0.0351562 0.8125 0.046875 C 0.726562 0.046875 0.6875 0.0195312 0.6875 -0.03125 C 0.6875 -0.09375 0.726562 -0.125 0.8125 -0.125 C 1.269531 -0.125 1.617188 -0.21875 1.859375 -0.40625 C 2.097656 -0.59375 2.21875 -1.078125 2.21875 -1.859375 L 2.21875 -8.171875 C 2.21875 -8.742188 2.117188 -9.148438 1.921875 -9.390625 C 1.722656 -9.628906 1.335938 -9.703125 0.765625 -9.609375 C 0.703125 -9.597656 0.664062 -9.609375 0.65625 -9.640625 C 0.644531 -9.679688 0.664062 -9.710938 0.71875 -9.734375 C 1.289062 -9.867188 1.925781 -10.054688 2.625 -10.296875 C 3.332031 -10.535156 3.90625 -10.804688 4.34375 -11.109375 C 4.425781 -11.160156 4.488281 -11.175781 4.53125 -11.15625 C 4.582031 -11.144531 4.609375 -11.109375 4.609375 -11.046875 C 4.546875 -10.578125 4.5 -10.179688 4.46875 -9.859375 C 4.4375 -9.535156 4.410156 -9.222656 4.390625 -8.921875 C 4.378906 -8.617188 4.375 -8.273438 4.375 -7.890625 C 4.550781 -8.484375 4.835938 -9.019531 5.234375 -9.5 C 5.628906 -9.988281 6.101562 -10.382812 6.65625 -10.6875 C 7.21875 -10.988281 7.8125 -11.140625 8.4375 -11.140625 C 9.519531 -11.140625 10.296875 -10.898438 10.765625 -10.421875 C 11.234375 -9.941406 11.570312 -9.265625 11.78125 -8.390625 L 13.265625 -2.390625 C 13.378906 -1.972656 13.503906 -1.632812 13.640625 -1.375 C 13.785156 -1.125 13.976562 -1 14.21875 -1 C 14.445312 -1 14.691406 -1.207031 14.953125 -1.625 C 15.210938 -2.039062 15.335938 -2.734375 15.328125 -3.703125 Z M 15.328125 -3.703125 "/></g></g></g><g fill="#000000" fill-opacity="1"><g transform="translate(71.097766, 29.846166)"><g><path d="M 13.65625 -3.703125 C 13.65625 -3.785156 13.675781 -3.828125 13.71875 -3.828125 C 13.769531 -3.828125 13.796875 -3.785156 13.796875 -3.703125 C 13.796875 -3.015625 13.707031 -2.367188 13.53125 -1.765625 C 13.351562 -1.160156 13.085938 -0.671875 12.734375 -0.296875 C 12.390625 0.078125 11.945312 0.265625 11.40625 0.265625 C 10.875 0.265625 10.421875 0.0703125 10.046875 -0.3125 C 9.671875 -0.707031 9.484375 -1.328125 9.484375 -2.171875 L 9.484375 -2.3125 C 9.472656 -2.34375 9.46875 -2.375 9.46875 -2.40625 C 9.46875 -2.445312 9.457031 -2.472656 9.4375 -2.484375 C 9.375 -2.578125 9.3125 -2.570312 9.25 -2.46875 C 8.832031 -1.601562 8.300781 -0.914062 7.65625 -0.40625 C 7.007812 0.101562 6.203125 0.359375 5.234375 0.359375 C 4.421875 0.359375 3.660156 0.132812 2.953125 -0.3125 C 2.253906 -0.757812 1.691406 -1.390625 1.265625 -2.203125 C 0.835938 -3.023438 0.625 -3.992188 0.625 -5.109375 C 0.625 -5.941406 0.769531 -6.71875 1.0625 -7.4375 C 1.351562 -8.164062 1.753906 -8.804688 2.265625 -9.359375 C 2.773438 -9.921875 3.359375 -10.359375 4.015625 -10.671875 C 4.671875 -10.984375 5.347656 -11.140625 6.046875 -11.140625 C 6.703125 -11.140625 7.320312 -11.007812 7.90625 -10.75 C 8.5 -10.5 9.019531 -10.117188 9.46875 -9.609375 L 9.46875 -13.765625 C 9.46875 -14.304688 9.421875 -14.695312 9.328125 -14.9375 C 9.234375 -15.175781 9.097656 -15.316406 8.921875 -15.359375 C 8.753906 -15.410156 8.566406 -15.414062 8.359375 -15.375 C 8.285156 -15.351562 8.238281 -15.367188 8.21875 -15.421875 C 8.207031 -15.484375 8.207031 -15.515625 8.21875 -15.515625 C 8.863281 -15.691406 9.488281 -15.898438 10.09375 -16.140625 C 10.707031 -16.390625 11.253906 -16.738281 11.734375 -17.1875 C 11.734375 -17.1875 11.769531 -17.179688 11.84375 -17.171875 C 11.914062 -17.171875 11.9375 -17.117188 11.90625 -17.015625 C 11.789062 -16.472656 11.71875 -15.867188 11.6875 -15.203125 C 11.65625 -14.535156 11.640625 -13.617188 11.640625 -12.453125 L 11.640625 -2.609375 C 11.640625 -1.585938 11.90625 -1.078125 12.4375 -1.078125 C 12.8125 -1.078125 13.082031 -1.207031 13.25 -1.46875 C 13.414062 -1.726562 13.523438 -2.0625 13.578125 -2.46875 C 13.628906 -2.875 13.65625 -3.285156 13.65625 -3.703125 Z M 6.671875 -0.890625 C 7.597656 -0.890625 8.289062 -1.210938 8.75 -1.859375 C 9.207031 -2.515625 9.453125 -3.429688 9.484375 -4.609375 L 9.484375 -5.8125 C 9.453125 -6.363281 9.363281 -6.925781 9.21875 -7.5 C 9.082031 -8.070312 8.875 -8.597656 8.59375 -9.078125 C 8.3125 -9.554688 7.957031 -9.941406 7.53125 -10.234375 C 7.101562 -10.535156 6.582031 -10.6875 5.96875 -10.6875 C 4.71875 -10.6875 3.828125 -10.347656 3.296875 -9.671875 C 2.773438 -9.003906 2.515625 -8.082031 2.515625 -6.90625 C 2.515625 -6.144531 2.617188 -5.398438 2.828125 -4.671875 C 3.046875 -3.941406 3.34375 -3.296875 3.71875 -2.734375 C 4.101562 -2.171875 4.546875 -1.722656 5.046875 -1.390625 C 5.554688 -1.054688 6.097656 -0.890625 6.671875 -0.890625 Z M 6.671875 -0.890625 "/></g></g></g><g fill="#000000" fill-opacity="1"><g transform="translate(84.648352, 29.846166)"><g><path d="M 13.125 -3.703125 C 13.125 -3.785156 13.148438 -3.828125 13.203125 -3.828125 C 13.265625 -3.835938 13.296875 -3.796875 13.296875 -3.703125 C 13.296875 -2.796875 13.171875 -2.039062 12.921875 -1.4375 C 12.671875 -0.84375 12.359375 -0.398438 11.984375 -0.109375 C 11.609375 0.179688 11.222656 0.328125 10.828125 0.328125 C 9.898438 0.328125 9.28125 -0.46875 8.96875 -2.0625 L 8.75 -2.984375 C 8.445312 -1.960938 7.914062 -1.15625 7.15625 -0.5625 C 6.40625 0.03125 5.582031 0.328125 4.6875 0.328125 C 3.789062 0.328125 3.050781 0.148438 2.46875 -0.203125 C 1.894531 -0.554688 1.46875 -1.015625 1.1875 -1.578125 C 0.914062 -2.148438 0.789062 -2.738281 0.8125 -3.34375 C 0.832031 -3.90625 1.035156 -4.390625 1.421875 -4.796875 C 1.816406 -5.203125 2.34375 -5.507812 3 -5.71875 C 3.664062 -5.9375 4.382812 -6.046875 5.15625 -6.046875 C 5.75 -6.046875 6.304688 -6.019531 6.828125 -5.96875 C 7.347656 -5.925781 7.78125 -5.875 8.125 -5.8125 L 7.625 -8.109375 C 7.46875 -8.890625 7.175781 -9.476562 6.75 -9.875 C 6.332031 -10.269531 5.675781 -10.46875 4.78125 -10.46875 C 4.1875 -10.46875 3.609375 -10.347656 3.046875 -10.109375 C 2.484375 -9.867188 2.015625 -9.484375 1.640625 -8.953125 C 1.265625 -8.429688 1.050781 -7.75 1 -6.90625 C 0.988281 -6.789062 0.945312 -6.734375 0.875 -6.734375 C 0.8125 -6.734375 0.789062 -6.789062 0.8125 -6.90625 C 0.875 -7.84375 1.164062 -8.625 1.6875 -9.25 C 2.207031 -9.882812 2.835938 -10.359375 3.578125 -10.671875 C 4.316406 -10.984375 5.046875 -11.140625 5.765625 -11.140625 C 7.066406 -11.140625 8.019531 -10.878906 8.625 -10.359375 C 9.226562 -9.847656 9.660156 -9.046875 9.921875 -7.953125 L 11.109375 -2.390625 C 11.210938 -1.992188 11.332031 -1.660156 11.46875 -1.390625 C 11.601562 -1.128906 11.789062 -1 12.03125 -1 C 12.226562 -1 12.457031 -1.207031 12.71875 -1.625 C 12.988281 -2.039062 13.125 -2.734375 13.125 -3.703125 Z M 8.484375 -3.578125 C 8.503906 -3.660156 8.515625 -3.742188 8.515625 -3.828125 C 8.523438 -3.921875 8.523438 -4.023438 8.515625 -4.140625 L 8.21875 -5.375 C 7.875 -5.457031 7.472656 -5.523438 7.015625 -5.578125 C 6.554688 -5.640625 6.125 -5.671875 5.71875 -5.671875 C 4.738281 -5.671875 4.015625 -5.535156 3.546875 -5.265625 C 3.078125 -4.992188 2.835938 -4.46875 2.828125 -3.6875 C 2.828125 -3.1875 2.914062 -2.71875 3.09375 -2.28125 C 3.28125 -1.84375 3.582031 -1.488281 4 -1.21875 C 4.425781 -0.945312 4.96875 -0.8125 5.625 -0.8125 C 6.601562 -0.8125 7.304688 -1.070312 7.734375 -1.59375 C 8.171875 -2.125 8.421875 -2.785156 8.484375 -3.578125 Z M 8.484375 -3.578125 "/></g></g></g><g fill="#000000" fill-opacity="1"><g transform="translate(97.69706, 29.846166)"><g><path d="M 7.578125 -11.140625 C 8.023438 -11.140625 8.453125 -11.054688 8.859375 -10.890625 C 9.265625 -10.722656 9.582031 -10.503906 9.8125 -10.234375 C 10.039062 -9.960938 10.109375 -9.648438 10.015625 -9.296875 L 9.015625 -5.5625 C 8.992188 -5.46875 8.957031 -5.425781 8.90625 -5.4375 C 8.863281 -5.457031 8.851562 -5.519531 8.875 -5.625 C 9.039062 -6.570312 9.035156 -7.328125 8.859375 -7.890625 C 8.691406 -8.460938 8.40625 -8.875 8 -9.125 C 7.59375 -9.382812 7.125 -9.515625 6.59375 -9.515625 C 5.957031 -9.515625 5.476562 -9.289062 5.15625 -8.84375 C 4.84375 -8.394531 4.632812 -7.835938 4.53125 -7.171875 C 4.425781 -6.503906 4.375 -5.832031 4.375 -5.15625 L 4.375 -1.84375 C 4.375 -1.207031 4.492188 -0.765625 4.734375 -0.515625 C 4.972656 -0.265625 5.332031 -0.132812 5.8125 -0.125 C 5.882812 -0.125 5.921875 -0.09375 5.921875 -0.03125 C 5.921875 0.0195312 5.882812 0.046875 5.8125 0.046875 C 5.550781 0.0351562 5.195312 0.0234375 4.75 0.015625 C 4.3125 0.00390625 3.835938 0 3.328125 0 C 2.828125 0 2.347656 0.00390625 1.890625 0.015625 C 1.441406 0.0234375 1.082031 0.0351562 0.8125 0.046875 C 0.726562 0.046875 0.6875 0.0195312 0.6875 -0.03125 C 0.6875 -0.09375 0.726562 -0.125 0.8125 -0.125 C 1.269531 -0.125 1.617188 -0.21875 1.859375 -0.40625 C 2.097656 -0.59375 2.21875 -1.078125 2.21875 -1.859375 L 2.21875 -8.171875 C 2.21875 -8.742188 2.117188 -9.148438 1.921875 -9.390625 C 1.722656 -9.628906 1.335938 -9.703125 0.765625 -9.609375 C 0.703125 -9.597656 0.664062 -9.609375 0.65625 -9.640625 C 0.644531 -9.679688 0.664062 -9.710938 0.71875 -9.734375 C 1.289062 -9.867188 1.925781 -10.054688 2.625 -10.296875 C 3.332031 -10.535156 3.90625 -10.804688 4.34375 -11.109375 C 4.425781 -11.160156 4.488281 -11.175781 4.53125 -11.15625 C 4.582031 -11.144531 4.609375 -11.109375 4.609375 -11.046875 C 4.546875 -10.566406 4.5 -10.160156 4.46875 -9.828125 C 4.4375 -9.492188 4.410156 -9.171875 4.390625 -8.859375 C 4.378906 -8.546875 4.375 -8.179688 4.375 -7.765625 L 4.375 -7.34375 C 4.488281 -7.863281 4.660156 -8.414062 4.890625 -9 C 5.117188 -9.59375 5.445312 -10.097656 5.875 -10.515625 C 6.3125 -10.929688 6.878906 -11.140625 7.578125 -11.140625 Z M 7.578125 -11.140625 "/></g></g></g></svg>