<svg xmlns="http://www.w3.org/2000/svg" xmlns:xlink="http://www.w3.org/1999/xlink" width="31" zoomAndPan="magnify" viewBox="0 0 23.25 15" height="20" preserveAspectRatio="xMidYMid meet" version="1.0"><defs><clipPath id="ffbcd95cdd"><path d="M 0.375 0 L 21.46875 0 L 21.46875 13.359375 L 0.375 13.359375 Z M 0.375 0 " clip-rule="nonzero"/></clipPath><clipPath id="b9ad149e22"><path d="M 14.496094 6.824219 L 19.261719 6.824219 L 19.261719 11.589844 L 14.496094 11.589844 Z M 14.496094 6.824219 " clip-rule="nonzero"/></clipPath><clipPath id="2cb98bc418"><path d="M 16.878906 6.824219 L 17.636719 8.445312 L 19.261719 9.207031 L 17.636719 9.964844 L 16.878906 11.589844 L 16.121094 9.964844 L 14.496094 9.207031 L 16.121094 8.445312 Z M 16.878906 6.824219 " clip-rule="nonzero"/></clipPath></defs><g clip-path="url(#ffbcd95cdd)"><path fill="#f1aa7e" d="M 0.375 1.226562 L 0.375 12.871094 C 0.375 13.289062 0.714844 13.628906 1.132812 13.628906 L 20.8125 13.628906 C 21.230469 13.628906 21.566406 13.289062 21.566406 12.871094 L 21.566406 1.226562 L 11.367188 7.460938 C 11.125 7.609375 10.820312 7.609375 10.578125 7.460938 Z M 10.972656 5.929688 L 1.277344 0.00390625 L 20.667969 0.00390625 Z M 10.972656 5.929688 " fill-opacity="1" fill-rule="evenodd"/></g><g clip-path="url(#b9ad149e22)"><g clip-path="url(#2cb98bc418)"><path fill="#f1aa7e" d="M 14.496094 6.824219 L 19.261719 6.824219 L 19.261719 11.589844 L 14.496094 11.589844 Z M 14.496094 6.824219 " fill-opacity="1" fill-rule="nonzero"/></g></g></svg>