<svg xmlns="http://www.w3.org/2000/svg" xmlns:xlink="http://www.w3.org/1999/xlink" width="40" zoomAndPan="magnify" viewBox="0 0 30 28.499999" height="38" preserveAspectRatio="xMidYMid meet" version="1.0"><defs><clipPath id="7b493f5726"><path d="M 2.585938 2.074219 L 27.820312 2.074219 L 27.820312 27.269531 L 2.585938 27.269531 Z M 2.585938 2.074219 " clip-rule="nonzero"/></clipPath><clipPath id="9c76b1ba98"><path d="M 0.257812 16 L 8 16 L 8 25 L 0.257812 25 Z M 0.257812 16 " clip-rule="nonzero"/></clipPath><clipPath id="17cecca878"><path d="M 18.246094 0.00390625 L 29.003906 0.00390625 L 29.003906 11.066406 L 18.246094 11.066406 Z M 18.246094 0.00390625 " clip-rule="nonzero"/></clipPath><clipPath id="a72d917868"><path d="M 13.457031 12.300781 L 16.132812 12.300781 L 16.132812 14.976562 L 13.457031 14.976562 Z M 13.457031 12.300781 " clip-rule="nonzero"/></clipPath><clipPath id="35b8532ef5"><path d="M 14.796875 12.300781 L 15.222656 13.210938 L 16.132812 13.636719 L 15.222656 14.0625 L 14.796875 14.976562 L 14.371094 14.0625 L 13.457031 13.636719 L 14.371094 13.210938 Z M 14.796875 12.300781 " clip-rule="nonzero"/></clipPath></defs><g clip-path="url(#7b493f5726)"><path fill="#000000" d="M 15.1875 2.101562 C 14.859375 14.09375 14.59375 14.359375 2.605469 14.683594 C 14.59375 15.011719 14.859375 15.277344 15.1875 27.269531 C 15.515625 15.277344 15.78125 15.011719 27.769531 14.683594 C 15.78125 14.359375 15.515625 14.09375 15.1875 2.101562 " fill-opacity="1" fill-rule="nonzero"/></g><g clip-path="url(#9c76b1ba98)"><path fill="#000000" d="M 3.886719 16.808594 C 3.792969 20.265625 3.714844 20.34375 0.257812 20.4375 C 3.714844 20.53125 3.792969 20.609375 3.886719 24.066406 C 3.980469 20.609375 4.058594 20.53125 7.515625 20.4375 C 4.058594 20.34375 3.980469 20.265625 3.886719 16.808594 " fill-opacity="1" fill-rule="nonzero"/></g><g clip-path="url(#17cecca878)"><path fill="#000000" d="M 23.816406 11.03125 C 23.960938 5.777344 24.074219 5.660156 29.328125 5.515625 C 24.074219 5.375 23.960938 5.257812 23.816406 0.00390625 C 23.671875 5.257812 23.554688 5.375 18.300781 5.515625 C 23.554688 5.660156 23.671875 5.777344 23.816406 11.03125 " fill-opacity="1" fill-rule="nonzero"/></g><g clip-path="url(#a72d917868)"><g clip-path="url(#35b8532ef5)"><path fill="#000000" d="M 13.457031 12.300781 L 16.132812 12.300781 L 16.132812 14.976562 L 13.457031 14.976562 Z M 13.457031 12.300781 " fill-opacity="1" fill-rule="nonzero"/></g></g></svg>