<svg xmlns="http://www.w3.org/2000/svg" xmlns:xlink="http://www.w3.org/1999/xlink" width="15" zoomAndPan="magnify" viewBox="0 0 11.25 23.249999" height="31" preserveAspectRatio="xMidYMid meet" version="1.0"><defs><clipPath id="73cdfeb1f0"><path d="M 0 0.375 L 9.84375 0.375 L 9.84375 21.46875 L 0 21.46875 Z M 0 0.375 " clip-rule="nonzero"/></clipPath><clipPath id="074212d79d"><path d="M 4.261719 7.367188 L 5.753906 7.367188 L 5.753906 8.859375 L 4.261719 8.859375 Z M 4.261719 7.367188 " clip-rule="nonzero"/></clipPath><clipPath id="26e3ffe9ee"><path d="M 5.007812 7.367188 L 5.246094 7.875 L 5.753906 8.113281 L 5.246094 8.351562 L 5.007812 8.859375 L 4.769531 8.351562 L 4.261719 8.113281 L 4.769531 7.875 Z M 5.007812 7.367188 " clip-rule="nonzero"/></clipPath></defs><g clip-path="url(#73cdfeb1f0)"><path fill="#000000" d="M 7.699219 3.894531 L 10.007812 3.894531 L 10.007812 0.414062 L 7.058594 0.414062 L 7.058594 0.425781 C 3.183594 0.566406 2.382812 2.738281 2.316406 5.035156 L 2.308594 5.035156 L 2.308594 7.449219 L 0 7.449219 L 0 10.9375 L 2.308594 10.9375 L 2.308594 21.53125 L 6.453125 21.53125 L 6.453125 10.9375 L 9.421875 10.9375 L 10.007812 7.449219 L 6.453125 7.449219 L 6.453125 5.289062 C 6.453125 4.519531 6.96875 3.894531 7.699219 3.894531 Z M 7.699219 3.894531 " fill-opacity="1" fill-rule="nonzero"/></g><g clip-path="url(#074212d79d)"><g clip-path="url(#26e3ffe9ee)"><path fill="#000000" d="M 4.261719 7.367188 L 5.753906 7.367188 L 5.753906 8.859375 L 4.261719 8.859375 Z M 4.261719 7.367188 " fill-opacity="1" fill-rule="nonzero"/></g></g></svg>