<svg xmlns="http://www.w3.org/2000/svg" xmlns:xlink="http://www.w3.org/1999/xlink" width="31" zoomAndPan="magnify" viewBox="0 0 23.25 23.249999" height="31" preserveAspectRatio="xMidYMid meet" version="1.0"><defs><clipPath id="7bb52c4dc9"><path d="M 0 0 L 21.796875 0 L 21.796875 21.796875 L 0 21.796875 Z M 0 0 " clip-rule="nonzero"/></clipPath><clipPath id="2bad3f879b"><path d="M 17.976562 4.082031 L 19.515625 4.082031 L 19.515625 5.625 L 17.976562 5.625 Z M 17.976562 4.082031 " clip-rule="nonzero"/></clipPath><clipPath id="dda9b461c0"><path d="M 18.746094 4.082031 L 18.992188 4.609375 L 19.515625 4.855469 L 18.992188 5.097656 L 18.746094 5.625 L 18.5 5.097656 L 17.976562 4.855469 L 18.5 4.609375 Z M 18.746094 4.082031 " clip-rule="nonzero"/></clipPath></defs><g clip-path="url(#7bb52c4dc9)"><path fill="#000000" d="M 18.558594 21.796875 L 3.238281 21.796875 C 1.453125 21.796875 0 20.34375 0 18.558594 L 0 3.238281 C 0 1.453125 1.453125 0 3.238281 0 L 18.558594 0 C 20.34375 0 21.796875 1.453125 21.796875 3.238281 L 21.796875 18.558594 C 21.796875 20.34375 20.34375 21.796875 18.558594 21.796875 Z M 3.238281 1.179688 C 2.101562 1.179688 1.179688 2.101562 1.179688 3.238281 L 1.179688 18.558594 C 1.179688 19.695312 2.101562 20.617188 3.238281 20.617188 L 18.558594 20.617188 C 19.695312 20.617188 20.617188 19.695312 20.617188 18.558594 L 20.617188 3.238281 C 20.617188 2.101562 19.695312 1.179688 18.558594 1.179688 Z M 3.238281 1.179688 " fill-opacity="1" fill-rule="nonzero"/></g><path fill="#000000" d="M 10.898438 17.085938 C 7.488281 17.085938 4.710938 14.308594 4.710938 10.898438 C 4.710938 7.488281 7.488281 4.710938 10.898438 4.710938 C 14.308594 4.710938 17.085938 7.488281 17.085938 10.898438 C 17.085938 14.308594 14.308594 17.085938 10.898438 17.085938 Z M 10.898438 5.890625 C 8.136719 5.890625 5.890625 8.136719 5.890625 10.898438 C 5.890625 13.660156 8.136719 15.90625 10.898438 15.90625 C 13.660156 15.90625 15.90625 13.660156 15.90625 10.898438 C 15.90625 8.136719 13.660156 5.890625 10.898438 5.890625 Z M 10.898438 5.890625 " fill-opacity="1" fill-rule="nonzero"/><path fill="#000000" d="M 17.378906 6.480469 C 16.242188 6.480469 15.316406 5.554688 15.316406 4.417969 C 15.316406 3.28125 16.242188 2.355469 17.378906 2.355469 C 18.515625 2.355469 19.441406 3.28125 19.441406 4.417969 C 19.441406 5.554688 18.515625 6.480469 17.378906 6.480469 Z M 17.378906 3.535156 C 16.890625 3.535156 16.496094 3.929688 16.496094 4.417969 C 16.496094 4.90625 16.890625 5.300781 17.378906 5.300781 C 17.867188 5.300781 18.261719 4.90625 18.261719 4.417969 C 18.261719 3.929688 17.867188 3.535156 17.378906 3.535156 Z M 17.378906 3.535156 " fill-opacity="1" fill-rule="nonzero"/><g clip-path="url(#2bad3f879b)"><g clip-path="url(#dda9b461c0)"><path fill="#000000" d="M 17.976562 4.082031 L 19.515625 4.082031 L 19.515625 5.625 L 17.976562 5.625 Z M 17.976562 4.082031 " fill-opacity="1" fill-rule="nonzero"/></g></g></svg>