<svg xmlns="http://www.w3.org/2000/svg" xmlns:xlink="http://www.w3.org/1999/xlink" width="21" zoomAndPan="magnify" viewBox="0 0 15.75 21.749999" height="29" preserveAspectRatio="xMidYMid meet" version="1.0"><defs><clipPath id="3a0cf5b440"><path d="M 0 0.046875 L 15.503906 0.046875 L 15.503906 21.457031 L 0 21.457031 Z M 0 0.046875 " clip-rule="nonzero"/></clipPath><clipPath id="83cb7d759c"><path d="M 5.1875 11.730469 L 10.191406 11.730469 L 10.191406 16.734375 L 5.1875 16.734375 Z M 5.1875 11.730469 " clip-rule="nonzero"/></clipPath><clipPath id="e8620b76c7"><path d="M 7.691406 11.730469 L 8.484375 13.433594 L 10.191406 14.230469 L 8.484375 15.027344 L 7.691406 16.734375 L 6.894531 15.027344 L 5.1875 14.230469 L 6.894531 13.433594 Z M 7.691406 11.730469 " clip-rule="nonzero"/></clipPath></defs><g clip-path="url(#3a0cf5b440)"><path fill="#f1aa7e" d="M 7.679688 0.046875 C 3.453125 0.046875 0.03125 3.597656 0.03125 7.976562 C 0.03125 12.355469 2.808594 12.671875 7.679688 21.085938 C 12.53125 12.671875 15.324219 12.355469 15.324219 7.976562 C 15.324219 3.59375 11.902344 0.046875 7.679688 0.046875 Z M 7.679688 10.972656 C 7.289062 10.964844 6.914062 10.882812 6.554688 10.726562 C 6.199219 10.570312 5.882812 10.351562 5.613281 10.070312 C 5.34375 9.789062 5.136719 9.46875 4.992188 9.105469 C 4.851562 8.742188 4.78125 8.367188 4.789062 7.976562 C 4.78125 7.585938 4.851562 7.207031 4.992188 6.847656 C 5.136719 6.484375 5.34375 6.160156 5.613281 5.878906 C 5.886719 5.601562 6.199219 5.382812 6.558594 5.226562 C 6.914062 5.070312 7.289062 4.988281 7.679688 4.980469 C 8.066406 4.988281 8.441406 5.070312 8.800781 5.226562 C 9.15625 5.382812 9.46875 5.601562 9.742188 5.878906 C 10.011719 6.160156 10.21875 6.484375 10.363281 6.847656 C 10.503906 7.207031 10.574219 7.585938 10.566406 7.976562 C 10.574219 8.367188 10.503906 8.742188 10.363281 9.105469 C 10.21875 9.46875 10.011719 9.789062 9.742188 10.070312 C 9.472656 10.351562 9.15625 10.570312 8.800781 10.726562 C 8.441406 10.882812 8.066406 10.964844 7.679688 10.972656 Z M 7.679688 10.972656 " fill-opacity="1" fill-rule="nonzero"/></g><g clip-path="url(#83cb7d759c)"><g clip-path="url(#e8620b76c7)"><path fill="#f1aa7e" d="M 5.1875 11.730469 L 10.191406 11.730469 L 10.191406 16.734375 L 5.1875 16.734375 Z M 5.1875 11.730469 " fill-opacity="1" fill-rule="nonzero"/></g></g></svg>