<svg xmlns="http://www.w3.org/2000/svg" xmlns:xlink="http://www.w3.org/1999/xlink" width="187" zoomAndPan="magnify" viewBox="0 0 140.25 9.75" height="13" preserveAspectRatio="xMidYMid meet" version="1.0"><defs><clipPath id="8f8688dedd"><path d="M 1.742188 0.34375 L 137.753906 0.34375 L 137.753906 9.117188 L 1.742188 9.117188 Z M 1.742188 0.34375 " clip-rule="nonzero"/></clipPath><clipPath id="79b14930f0"><path d="M 3.375 1.40625 L 9.683594 1.40625 L 9.683594 7.714844 L 3.375 7.714844 Z M 3.375 1.40625 " clip-rule="nonzero"/></clipPath><clipPath id="15105840f8"><path d="M 6.53125 1.40625 L 7.535156 3.554688 L 9.683594 4.558594 L 7.535156 5.5625 L 6.53125 7.714844 L 5.527344 5.5625 L 3.375 4.558594 L 5.527344 3.554688 Z M 6.53125 1.40625 " clip-rule="nonzero"/></clipPath></defs><g clip-path="url(#8f8688dedd)"><path fill="#000000" d="M 1.75 4.730469 L 5.273438 3.75 L 6.292969 0.347656 L 7.308594 3.75 L 9.367188 4.320312 L 137.746094 4.320312 L 137.746094 5.136719 L 9.367188 5.136719 L 7.308594 5.710938 L 6.292969 9.113281 L 5.273438 5.710938 Z M 1.75 4.730469 " fill-opacity="1" fill-rule="nonzero"/></g><g clip-path="url(#79b14930f0)"><g clip-path="url(#15105840f8)"><path fill="#000000" d="M 3.375 1.40625 L 9.683594 1.40625 L 9.683594 7.714844 L 3.375 7.714844 Z M 3.375 1.40625 " fill-opacity="1" fill-rule="nonzero"/></g></g></svg>