<svg xmlns="http://www.w3.org/2000/svg" xmlns:xlink="http://www.w3.org/1999/xlink" width="187" zoomAndPan="magnify" viewBox="0 0 140.25 9.75" height="13" preserveAspectRatio="xMidYMid meet" version="1.0"><defs><clipPath id="b00bdbf8fb"><path d="M 1.386719 0 L 137.398438 0 L 137.398438 8.773438 L 1.386719 8.773438 Z M 1.386719 0 " clip-rule="nonzero"/></clipPath><clipPath id="25ac2fcc31"><path d="M 129.78125 1.40625 L 136.089844 1.40625 L 136.089844 7.714844 L 129.78125 7.714844 Z M 129.78125 1.40625 " clip-rule="nonzero"/></clipPath><clipPath id="5945fdaabd"><path d="M 132.9375 1.40625 L 133.941406 3.554688 L 136.089844 4.558594 L 133.941406 5.5625 L 132.9375 7.714844 L 131.933594 5.5625 L 129.78125 4.558594 L 131.933594 3.554688 Z M 132.9375 1.40625 " clip-rule="nonzero"/></clipPath></defs><g clip-path="url(#b00bdbf8fb)"><path fill="#000000" d="M 137.390625 4.386719 L 133.867188 5.367188 L 132.847656 8.769531 L 131.832031 5.367188 L 129.773438 4.796875 L 1.394531 4.796875 L 1.394531 3.980469 L 129.773438 3.980469 L 131.832031 3.40625 L 132.847656 0.00390625 L 133.867188 3.40625 Z M 137.390625 4.386719 " fill-opacity="1" fill-rule="nonzero"/></g><g clip-path="url(#25ac2fcc31)"><g clip-path="url(#5945fdaabd)"><path fill="#000000" d="M 129.78125 1.40625 L 136.089844 1.40625 L 136.089844 7.714844 L 129.78125 7.714844 Z M 129.78125 1.40625 " fill-opacity="1" fill-rule="nonzero"/></g></g></svg>