<svg xmlns="http://www.w3.org/2000/svg" xmlns:xlink="http://www.w3.org/1999/xlink" width="24" zoomAndPan="magnify" viewBox="0 0 18 17.999999" height="24" preserveAspectRatio="xMidYMid meet" version="1.0"><defs><clipPath id="75166485a5"><path d="M 0 1.34375 L 5.082031 1.34375 L 5.082031 6.425781 L 0 6.425781 Z M 0 1.34375 " clip-rule="nonzero"/></clipPath><clipPath id="84c79725a8"><path d="M 2.542969 1.34375 L 3.351562 3.078125 L 5.082031 3.886719 L 3.351562 4.695312 L 2.542969 6.425781 L 1.734375 4.695312 L 0 3.886719 L 1.734375 3.078125 Z M 2.542969 1.34375 " clip-rule="nonzero"/></clipPath></defs><path fill="#f1aa7e" d="M 17.453125 12.972656 C 17.582031 13.316406 17.65625 13.6875 17.667969 14.074219 C 17.671875 14.113281 17.671875 14.148438 17.671875 14.1875 C 17.671875 16.109375 16.109375 17.671875 14.1875 17.671875 C 6.351562 17.671875 0 11.320312 0 3.484375 C 0 1.5625 1.5625 0 3.484375 0 C 3.523438 0 3.558594 0 3.597656 0.00390625 C 3.984375 0.015625 4.355469 0.0898438 4.699219 0.21875 L 6.007812 5.882812 C 6.007812 5.886719 6.007812 5.886719 6.003906 5.886719 L 3.605469 6.964844 L 3.597656 6.96875 C 4.699219 10.320312 7.351562 12.972656 10.703125 14.074219 L 10.707031 14.066406 L 11.785156 11.667969 L 17.453125 12.972656 " fill-opacity="1" fill-rule="nonzero"/><g clip-path="url(#75166485a5)"><g clip-path="url(#84c79725a8)"><path fill="#f1aa7e" d="M 0 1.34375 L 5.082031 1.34375 L 5.082031 6.425781 L 0 6.425781 Z M 0 1.34375 " fill-opacity="1" fill-rule="nonzero"/></g></g></svg>